# xmcd
#
# Track frame offsets:
#	150
#	68890
#	136157
#	163250
#
# Disc length: 2434 seconds
#
# Revision: 0
# Processed by: cddbd v1.4PL0 Copyright (c) Steve Scherf et al.
# Submitted via: EasyCDDAExtractor 4.6.0.1
#
DISCID=33098004
DTITLE=James Brown - Sex Machine
DYEAR=1900
DGENRE=Soul
TTITLE0=Turn It Loose/It's Too Funky In Here/Gonna Have A Funky Good Time/Try 
TTITLE0=Me
TTITLE1=Get On The Good Foot/Prisoner Of Love/Get Up Of That Thang
TTITLE2=Georgia Om My Mind
TTITLE3=Sex Machine
EXTD=
EXTT0=Medley
EXTT1=Medley
EXTT2=
EXTT3=
PLAYORDER=
